# xmcd
#
# Track frame offsets: 
#        150
#        15767
#        30415
#        45667
#        61240
#        76542
#        91465
#        106890
#        122450
#        137982
#        153205
#        167807
#
# Disc length: 2444 seconds
#
# Revision: 0
# Processed by: cddbd v1.5.2PL0 Copyright (c) Steve Scherf et al.
# Submitted via: ExactAudioCopy v0.95b4
#
DISCID=7e098a0c
DTITLE=STELIOS FOUSTALIERHS - STELIOS FOUSTALIERHS 1935-1955
DYEAR=1900
DGENRE=Folklore
TTITLE0=Oso baroun ta sidera
TTITLE1=Ponemenh kardia
TTITLE2=Syrto ths Nyxtas 
TTITLE3=To meraklidiko pouli
TTITLE4=Syrtos prwtos
TTITLE5=San deis agaphs dakrya
TTITLE6=Ta basana moy xairomai
TTITLE7=Kontylies Mylopotamitikes
TTITLE8=Bafianos skopos
TTITLE9=Oso simwnei o kairos
TTITLE10=St araxniasmeno mnhma mou
TTITLE11=Hrakleiwtikos Pentozalhs
EXTD=
EXTT0=
EXTT1=
EXTT2=
EXTT3=
EXTT4=
EXTT5=
EXTT6=
EXTT7=
EXTT8=
EXTT9=
EXTT10=
EXTT11=
PLAYORDER=
